<?xml version="1.0" encoding="utf-8"?>
<!-- Generator: Adobe Illustrator 16.0.0, SVG Export Plug-In . SVG Version: 6.00 Build 0)  -->
<!DOCTYPE svg PUBLIC "-//W3C//DTD SVG 1.1//EN" "http://www.w3.org/Graphics/SVG/1.1/DTD/svg11.dtd">
<svg version="1.1" id="Layer_1" xmlns="http://www.w3.org/2000/svg" xmlns:xlink="http://www.w3.org/1999/xlink" x="0px" y="0px"
	 width="256px" height="84px" viewBox="-2 3 256 84" enable-background="new -2 3 256 84" xml:space="preserve">
<g>
	<path fill="#04B49E" d="M83.345,76.114h2.226l2.466,3.96l2.466-3.96h2.227v9.376h-2.048v-6.123l-2.637,4.006h-0.055l-2.612-3.965
		v6.082h-2.019v-9.376H83.345z"/>
	<path fill="#04B49E" d="M101.131,76.041h1.905l4.02,9.449h-2.158l-0.86-2.104h-3.962l-0.86,2.104h-2.103L101.131,76.041z
		 M103.303,81.562l-1.244-3.048l-1.243,3.048H103.303z"/>
	<path fill="#04B49E" d="M111.452,76.114h1.902l4.398,5.767v-5.767h2.033v9.376h-1.752l-4.54-5.963v5.963h-2.035v-9.376H111.452z"/>
	<path fill="#04B49E" d="M128.203,76.041h1.902l4.02,9.449h-2.158l-0.857-2.104h-3.965l-0.86,2.104h-2.101L128.203,76.041z
		 M130.372,81.562l-1.243-3.048l-1.243,3.048H130.372z"/>
	<path fill="#04B49E" d="M137.496,80.822v-0.027c0-2.664,2.076-4.845,4.919-4.845c1.692,0,2.71,0.447,3.687,1.282l-1.301,1.564
		c-0.721-0.603-1.364-0.953-2.45-0.953c-1.501,0-2.696,1.327-2.696,2.92v0.027c0,1.72,1.182,2.975,2.838,2.975
		c0.748,0,1.424-0.188,1.944-0.562v-1.341h-2.076v-1.779h4.079v4.074c-0.968,0.816-2.291,1.491-4.006,1.491
		C139.514,85.649,137.496,83.602,137.496,80.822z"/>
	<path fill="#04B49E" d="M151.366,76.114h7.081v1.834h-5.023v1.898h4.417v1.834h-4.417v1.976h5.092v1.834h-7.14v-9.376H151.366z"/>
	<path fill="#04B49E" d="M163.297,76.114h2.227l2.469,3.96l2.464-3.96h2.227v9.376h-2.049v-6.123l-2.637,4.006h-0.055l-2.614-3.965
		v6.082h-2.018v-9.376H163.297z"/>
	<path fill="#04B49E" d="M177.87,76.114h7.076v1.834h-5.023v1.898h4.421v1.834h-4.421v1.976h5.092v1.834h-7.141v-9.376H177.87z"/>
	<path fill="#04B49E" d="M189.796,76.114h1.903l4.397,5.767v-5.767h2.035v9.376h-1.752l-4.544-5.963v5.963h-2.035v-9.376H189.796z"
		/>
	<path fill="#04B49E" d="M205.514,78.012h-2.847v-1.897h7.77v1.897h-2.852v7.479h-2.062v-7.479H205.514z"/>
</g>
<g>
	<polygon fill="#293E54" points="88.201,56.71 88.201,42.287 104.781,42.287 104.781,40.631 88.201,40.631 88.201,28.298 
		111.493,28.298 111.493,26.642 81.921,26.642 81.921,58.357 112.572,58.357 112.572,56.71 	"/>
	<polygon fill="#293E54" points="228.628,56.71 228.628,42.287 245.207,42.287 245.207,40.631 228.628,40.631 228.628,28.298 
		251.924,28.298 251.924,26.642 222.35,26.642 222.35,58.357 253,58.357 253,56.71 	"/>
	<path fill="#293E54" d="M47.055,42.383V28.298h15.287c3.285,0,5.591,0.776,7.234,2.377c1.229,1.216,2,2.914,2,4.761
		c0,3.691-2.975,6.946-7.854,6.946H47.055z M64.951,43.84c5.389-0.44,8.623-4.081,8.623-8.356c0-2.329-0.974-4.369-2.466-5.874
		c-1.951-1.944-4.774-2.961-8.773-2.961H40.768v31.717h6.28V44.032h15.85l8.518,14.325h2.261L64.951,43.84z"/>
	<path fill="#293E54" d="M117.189,57.682v-1.702c4.41,0.57,8.993,0.963,14.098,0.963c8.773,0,13.445-1.523,13.445-6.46
		c0-1.789-0.611-3.055-2.227-3.97c-1.834-1.004-4.891-1.484-10.437-2.228c-5.502-0.7-8.903-1.482-11.089-2.838
		c-2.183-1.441-3.098-3.447-3.098-6.285c0-7.069,6.636-9.166,16.543-9.166c4.412,0,8.819,0.481,12.793,1.182v1.704
		c-3.887-0.57-7.811-0.915-12.09-0.915c-7.991,0-11.922,1.444-11.922,5.635c0,1.656,0.481,2.879,1.834,3.752
		c1.656,0.96,4.501,1.572,10.047,2.224c5.543,0.7,9.125,1.396,11.479,2.749c2.487,1.485,3.541,3.579,3.541,6.64
		c0,7.638-7.556,9.905-18.079,9.905C126.663,58.868,121.683,58.344,117.189,57.682z"/>
	<path fill="#293E54" d="M160.236,26.341h6.369v32.225h-6.369V26.341z"/>
	<path fill="#293E54" d="M178.714,26.341h15.81c14.321,0,20.435,5.854,20.435,16.151c0,10.308-6.113,16.065-20.435,16.065h-15.81
		V26.341z M193.911,56.683c10.517,0,18.318-3.755,18.318-14.238c0-10.566-7.792-14.276-18.318-14.276h-8.864v28.509h8.864V56.683z"
		/>
</g>
<path id="XMLID_00000095326952096137677410000015867706450279363734_" fill="#04B49E" d="M30.536,39.787V27.975
	c-0.007-0.158-0.089-0.294-0.219-0.37l-9.723-5.614V10.771c0-0.157-0.103-0.317-0.239-0.392L10.153,4.491
	c-0.037-0.027-0.071-0.055-0.105-0.082C10,4.382,9.953,4.368,9.897,4.361c-0.109-0.027-0.232,0-0.335,0.062
	C9.528,4.443,9.499,4.464,9.471,4.491l-10.215,5.902c-0.13,0.075-0.212,0.208-0.219,0.358c0,0.007,0,0.041,0,0.048v11.735
	C-0.984,22.582-1,22.643-1,22.698c0,0.119,0.05,0.229,0.125,0.311c0.042,0.048,0.089,0.089,0.144,0.123
	c0.034,0.021,0.068,0.034,0.109,0.041l9.6,5.539v11.082c-0.014,0.041-0.014,0.089-0.014,0.13c0,0.055,0.014,0.116,0.034,0.171
	c0.034,0.109,0.116,0.201,0.219,0.255c0.034,0.021,0.068,0.034,0.103,0.041l10.204,5.888c0.007,0.007,0.034,0.021,0.041,0.021
	c0.062,0.034,0.13,0.048,0.199,0.048c0.075,0,0.15-0.021,0.219-0.062l10.218-5.895c0.041-0.014,0.082-0.027,0.123-0.055
	c0.048-0.027,0.089-0.071,0.124-0.119c0.075-0.082,0.109-0.198,0.109-0.314C30.557,39.862,30.552,39.821,30.536,39.787z
	 M10.29,5.659c2.033,1.175,8.114,4.686,9.358,5.402v10.806l-9.358-5.4V5.659z M-0.017,11.062l9.358-5.402v10.802l-9.358,5.4V11.062z
	 M9.706,28.025L3.59,24.493c-1.277-0.737-2.438-1.41-3.125-1.809l9.357-5.399l9.467,5.461v10.932l-9.357,5.399V28.408
	C9.925,28.25,9.843,28.107,9.706,28.025z M19.757,45.31c-1.236-0.714-7.325-4.225-9.358-5.399l9.358-5.4l9.357,5.4L19.757,45.31z
	 M20.232,33.678V22.878l5.997,3.463c1.526,0.878,2.845,1.642,3.354,1.937c0,1.428,0,8.45,0,10.806L20.232,33.678z"/>
</svg>
